<svg xmlns="http://www.w3.org/2000/svg" width="35.124" height="38.101" viewBox="0 0 35.124 38.101">
  <g id="_003-counter" data-name="003-counter" transform="translate(-2.5)">
    <path id="Path_101" data-name="Path 101" d="M37.029,0H3.1a.6.6,0,0,0-.6.6V34.529a.6.6,0,0,0,.6.6H4.287v2.381a.6.6,0,0,0,.6.6h30.36a.6.6,0,0,0,.6-.6V35.124h1.191a.6.6,0,0,0,.6-.6V.6A.6.6,0,0,0,37.029,0ZM27.514,16.073h1.8a.578.578,0,0,1,.577.577s0,.005,0,.009,0,.007,0,.011a1.788,1.788,0,0,0,1.786,1.786h1.192a.6.6,0,0,1,0,1.191H27.514a1.787,1.787,0,0,1,0-3.573ZM27.5,21.432H27.49a1.787,1.787,0,0,1-1.624-1.1,2.958,2.958,0,0,0,1.647.5h5.363a1.746,1.746,0,0,0,.589-.11v.111a.6.6,0,0,1-.587.594Zm7.161-.594V19.05a1.788,1.788,0,0,0-1.786-1.786H31.679a.6.6,0,0,1-.6-.6s0-.005,0-.009,0-.007,0-.011a1.77,1.77,0,0,0-1.768-1.768h-1.8a2.981,2.981,0,0,0-2.977,2.978v1.788a2.951,2.951,0,0,0,.608,1.784H21.491a4.167,4.167,0,1,0-5.821,0H13.778a1.489,1.489,0,0,0,.03-.3,1.471,1.471,0,0,0-.305-.893,1.458,1.458,0,0,0,0-1.786,1.481,1.481,0,0,0-1.183-2.381H6.965a1.49,1.49,0,0,0-1.488,1.488,1.471,1.471,0,0,0,.305.893,1.459,1.459,0,0,0,0,1.787,1.471,1.471,0,0,0-.305.893,1.489,1.489,0,0,0,.03.3H3.691V13.69H7.835l.023,0,.048,0H17.952l.023,0,.012,0h2.358l.012,0,.023,0H24.5l.023,0,.012,0h2.358l.012,0,.023,0h4.121l.023,0,.012,0h2.358l.012,0,.023,0h2.954v7.742H34.547a1.771,1.771,0,0,0,.11-.594ZM15.6,18.454a2.977,2.977,0,1,1,2.977,2.977A2.979,2.979,0,0,1,15.6,18.454Zm-8.64,2.977a.3.3,0,0,1,0-.6H12.32a.3.3,0,0,1,0,.6Zm-.3-3.87a.3.3,0,0,1,.3-.3H12.32a.3.3,0,0,1,0,.6H6.965A.3.3,0,0,1,6.667,17.562Zm.3,2.084a.3.3,0,0,1,0-.6H12.32a.3.3,0,0,1,0,.6Zm24.1-7.146a.594.594,0,0,1,.012-1.188h2.381a.594.594,0,0,1,.012,1.188Zm-6.549,0a.594.594,0,0,1,.012-1.188h2.381a.594.594,0,0,1,.012,1.188Zm-6.549,0a.594.594,0,0,1,.012-1.188h2.381a.594.594,0,0,1,.012,1.188Zm3-3.57h2.381a.6.6,0,1,1,0,1.191H20.96a.6.6,0,0,1,0-1.191Zm3.573-2.381h2.381a.6.6,0,1,1,0,1.191H24.533a.6.6,0,1,1,0-1.191ZM30.487,8.93a.6.6,0,1,1,0,1.191H28.105a.6.6,0,0,1,0-1.191ZM25.017,10.12a1.664,1.664,0,0,0,0-1.191h1.412a1.664,1.664,0,0,0,0,1.191Zm-2.985,1.191h.816a1.666,1.666,0,0,0,0,1.188h-.813a1.666,1.666,0,0,0,0-1.188Zm6.549,0H29.4a1.662,1.662,0,0,0,0,1.188h-.814a1.666,1.666,0,0,0,0-1.188Zm4.873-1.191H32.162a1.764,1.764,0,0,0,.11-.6,1.788,1.788,0,0,0-1.786-1.786h-1.9a1.764,1.764,0,0,0,.11-.6,1.788,1.788,0,0,0-1.786-1.786H24.533a1.788,1.788,0,0,0-1.786,1.786,1.749,1.749,0,0,0,.11.6h-1.9a1.788,1.788,0,0,0-1.786,1.786,1.749,1.749,0,0,0,.11.6H17.975a1.788,1.788,0,0,0-1.786,1.786,1.752,1.752,0,0,0,.11.593H10.632a2.8,2.8,0,0,0,.716-1.188H13.81a.6.6,0,0,0,1.191,0V10.12a.6.6,0,1,0-1.191,0H11.348a3.744,3.744,0,0,0-3.49-2.381A2.962,2.962,0,0,0,5.49,12.5h-1.8V1.191H36.433V12.5h-1.3a1.768,1.768,0,0,0-1.677-2.379ZM7.835,12.5a1.785,1.785,0,0,1,.023-3.57c1.04,0,2.382.866,2.382,1.786S8.918,12.487,7.882,12.5ZM34.647,36.91H5.477V35.124h29.17Zm1.787-2.977H3.691V22.622h23.8l.023,0h8.92Z" transform="translate(0)" fill="#232323"/>
    <path id="Path_102" data-name="Path 102" d="M27.119,30h-.007a.6.6,0,1,0,.007,0Z" transform="translate(-9.721 -12.138)" fill="#232323"/>
    <path id="Path_103" data-name="Path 103" d="M31.124,30h-.006a.6.6,0,1,0,.006,0Z" transform="translate(-11.342 -12.138)" fill="#232323"/>
    <path id="Path_104" data-name="Path 104" d="M29.117,31.993h-.007a.6.6,0,1,0,.007,0Z" transform="translate(-10.529 -12.947)" fill="#232323"/>
    <path id="Path_105" data-name="Path 105" d="M29.117,28h-.007a.6.6,0,1,0,.007,0Z" transform="translate(-10.529 -11.33)" fill="#232323"/>
    <path id="Path_106" data-name="Path 106" d="M45.14,30.184a.6.6,0,1,0,0-1.191h-.007a.6.6,0,0,0,.007,1.191Z" transform="translate(-17.013 -11.733)" fill="#232323"/>
    <path id="Path_107" data-name="Path 107" d="M14.644,5a3.743,3.743,0,0,0-3.49,2.381H8.692a.6.6,0,1,0-1.191,0V8.574a.6.6,0,0,0,1.191,0h2.462a3.744,3.744,0,0,0,3.49,2.381,2.977,2.977,0,1,0,0-5.953Zm0,4.763c-1.04,0-2.382-.866-2.382-1.786S13.6,6.193,14.644,6.193a1.786,1.786,0,1,1,0,3.572Z" transform="translate(-2.024 -2.024)" fill="#232323"/>
  </g>
</svg>
