<svg xmlns="http://www.w3.org/2000/svg" width="15.664" height="12.998" viewBox="0 0 15.664 12.998">
  <g id="Icon_feather-camera" data-name="Icon feather-camera" transform="translate(0.5 0.5)">
    <path id="Path_17" data-name="Path 17" d="M16.164,15.165A1.333,1.333,0,0,1,14.831,16.5h-12A1.333,1.333,0,0,1,1.5,15.165V7.833A1.333,1.333,0,0,1,2.833,6.5H5.5l1.333-2h4l1.333,2h2.666a1.333,1.333,0,0,1,1.333,1.333Z" transform="translate(-1.5 -4.5)" fill="none" stroke="#fff" stroke-linecap="round" stroke-linejoin="round" stroke-width="1"/>
    <path id="Path_18" data-name="Path 18" d="M17.332,16.166A2.666,2.666,0,1,1,14.666,13.5,2.666,2.666,0,0,1,17.332,16.166Z" transform="translate(-7.334 -9.501)" fill="none" stroke="#fff" stroke-linecap="round" stroke-linejoin="round" stroke-width="1"/>
  </g>
</svg>
