<svg xmlns="http://www.w3.org/2000/svg" width="59.072" height="35.835" viewBox="0 0 59.072 35.835">
  <g id="Group_1277" data-name="Group 1277" transform="translate(-880 -7464)">
    <path id="Path_108" data-name="Path 108" d="M54.92,100.486H14.045a.867.867,0,1,0,0,1.734H54.92a2.42,2.42,0,0,1,2.418,2.418V123.1a2.42,2.42,0,0,1-2.418,2.418H52.843v-5.65a.867.867,0,0,0-.867-.867H7.1a.867.867,0,0,0-.867.867v5.65H4.152A2.42,2.42,0,0,1,1.734,123.1V104.638a2.42,2.42,0,0,1,2.418-2.418h6.425a.867.867,0,1,0,0-1.734H4.152A4.157,4.157,0,0,0,0,104.638V123.1a4.157,4.157,0,0,0,4.152,4.152h9.027a.867.867,0,1,0,0-1.734H7.963v-1.524H42.425a.867.867,0,0,0,0-1.734H7.963v-1.524H51.109v1.524H45.893a.867.867,0,0,0,0,1.734h5.216v1.524H16.647a.867.867,0,1,0,0,1.734H54.92a4.157,4.157,0,0,0,4.152-4.152V104.638A4.157,4.157,0,0,0,54.92,100.486Z" transform="translate(880 7363.514)" fill="#232323"/>
    <path id="Path_109" data-name="Path 109" d="M423.292,148.2a.867.867,0,1,0,0-1.734h-2.565a.867.867,0,1,0,0,1.734Z" transform="translate(508.685 7322.85)" fill="#232323"/>
    <path id="Path_110" data-name="Path 110" d="M260.963,148.2a.867.867,0,1,0,0-1.734H244.55a.867.867,0,1,0,0,1.734Z" transform="translate(664.492 7322.85)" fill="#232323"/>
    <path id="Path_111" data-name="Path 111" d="M113.045,352.064a.867.867,0,0,0-.867.867,5.727,5.727,0,0,1-2.433,4.306.867.867,0,1,0,1,1.414,7.459,7.459,0,0,0,3.163-5.72A.867.867,0,0,0,113.045,352.064Z" transform="translate(783.267 7141.024)" fill="#232323"/>
    <path id="Path_112" data-name="Path 112" d="M188.15,352.064a.867.867,0,0,0-.867.867v5.013a.867.867,0,0,0,1.734,0v-5.013A.867.867,0,0,0,188.15,352.064Z" transform="translate(714.371 7141.024)" fill="#232323"/>
    <path id="Path_113" data-name="Path 113" d="M250.931,352.064a.867.867,0,0,0-.867.867v5.013a.867.867,0,1,0,1.734,0v-5.013A.867.867,0,0,0,250.931,352.064Z" transform="translate(658.849 7141.024)" fill="#232323"/>
    <path id="Path_114" data-name="Path 114" d="M366.5,357.237a5.707,5.707,0,0,1-2.433-4.31.867.867,0,0,0-1.734,0,7.459,7.459,0,0,0,3.163,5.72.867.867,0,1,0,1-1.414Z" transform="translate(559.565 7141.024)" fill="#232323"/>
    <path id="Path_115" data-name="Path 115" d="M309.493,352.064a.867.867,0,0,0-.867.867v5.013a.867.867,0,1,0,1.734,0v-5.013A.867.867,0,0,0,309.493,352.064Z" transform="translate(607.058 7141.024)" fill="#232323"/>
  </g>
</svg>
