<svg id="Group_1272" data-name="Group 1272" xmlns="http://www.w3.org/2000/svg" width="39.274" height="33.367" viewBox="0 0 39.274 33.367">
  <path id="Path_94" data-name="Path 94" d="M38.7,193.8a.575.575,0,0,0-.575.575v1.6H18.755V175.842a.575.575,0,0,0-.575-.575H5.139a.575.575,0,0,0-.575.575v20.135H1.151V174.742a.575.575,0,1,0-1.151,0v21.81a.575.575,0,0,0,.575.575H38.7a.575.575,0,0,0,.575-.575v-2.173A.575.575,0,0,0,38.7,193.8ZM5.715,195.977v-19.56H17.6v19.56Z" transform="translate(0 -163.76)" fill="#232323"/>
  <path id="Path_95" data-name="Path 95" d="M38.7,38.5H7.287a.575.575,0,1,0,0,1.151H38.123v4.219H1.151V39.651H4.884a.575.575,0,1,0,0-1.151H.575A.575.575,0,0,0,0,39.075V47.04a.575.575,0,0,0,1.151,0V45.02h20.9V55.8a.575.575,0,0,0,.575.575H33.983a.575.575,0,0,0,.575-.575V45.02h3.565V66.677a.575.575,0,0,0,1.151,0v-27.6A.575.575,0,0,0,38.7,38.5ZM33.408,55.222h-10.2V53.765h10.2Zm0-2.608h-10.2V45.02h10.2Z" transform="translate(0 -38.5)" fill="#232323"/>
  <path id="Path_96" data-name="Path 96" d="M324.075,139.169h6.137a.575.575,0,0,0,0-1.151h-6.137a.575.575,0,1,0,0,1.151Z" transform="translate(-298.686 -130.384)" fill="#232323"/>
  <path id="Path_97" data-name="Path 97" d="M324.075,166.169h6.137a.575.575,0,0,0,0-1.151h-6.137a.575.575,0,1,0,0,1.151Z" transform="translate(-298.686 -155.313)" fill="#232323"/>
  <path id="Path_98" data-name="Path 98" d="M324.075,193.169h6.137a.575.575,0,0,0,0-1.151h-6.137a.575.575,0,1,0,0,1.151Z" transform="translate(-298.686 -180.242)" fill="#232323"/>
  <path id="Path_99" data-name="Path 99" d="M109.215,136.952a1.726,1.726,0,0,0,0-3.452h-3.989a1.726,1.726,0,1,0,0,3.452Zm-4.564-1.726a.576.576,0,0,1,.575-.575h3.989a.575.575,0,1,1,0,1.151h-3.989A.576.576,0,0,1,104.651,135.226Z" transform="translate(-95.561 -126.213)" fill="#232323"/>
  <path id="Path_100" data-name="Path 100" d="M103.037,249.18a.575.575,0,0,0-.787.206l-.555.949H100.3l1.22-1.22a.575.575,0,0,0-.814-.814l-1.22,1.22v-1.395l.948-.555a.575.575,0,1,0-.581-.993l-.943.552-.943-.552a.575.575,0,0,0-.581.993l.948.555v1.395l-1.22-1.22a.575.575,0,1,0-.814.814l1.22,1.22H96.127l-.555-.949a.575.575,0,1,0-.993.581l.552.943-.552.943a.575.575,0,1,0,.993.581l.555-.949h1.395l-1.22,1.22a.575.575,0,0,0,.814.814l1.22-1.22v1.395l-.948.555a.575.575,0,0,0,.581.993l.943-.552.943.552a.575.575,0,0,0,.581-.993l-.948-.555V252.3l1.22,1.22a.575.575,0,0,0,.814-.814l-1.22-1.22h1.395l.555.949a.575.575,0,1,0,.993-.581l-.551-.943.552-.943A.575.575,0,0,0,103.037,249.18Z" transform="translate(-87.251 -230.544)" fill="#232323"/>
</svg>
