<svg xmlns="http://www.w3.org/2000/svg" width="19.129" height="17" viewBox="0 0 19.129 17">
  <path id="Icon_awesome-edit" data-name="Icon awesome-edit" d="M13.37,2.767l3,3a.325.325,0,0,1,0,.458L9.113,13.474l-3.082.342a.646.646,0,0,1-.714-.714l.342-3.082,7.253-7.253A.325.325,0,0,1,13.37,2.767Zm5.38-.761L17.13.386a1.3,1.3,0,0,0-1.833,0L14.121,1.561a.325.325,0,0,0,0,.458l3,3a.325.325,0,0,0,.458,0L18.75,3.839a1.3,1.3,0,0,0,0-1.833Zm-6,9.495v3.381H2.125V4.255H9.757a.408.408,0,0,0,.282-.116L11.368,2.81a.4.4,0,0,0-.282-.681H1.594A1.594,1.594,0,0,0,0,3.723v11.69a1.594,1.594,0,0,0,1.594,1.594h11.69a1.594,1.594,0,0,0,1.594-1.594v-5.24A.4.4,0,0,0,14.2,9.89l-1.328,1.328A.408.408,0,0,0,12.753,11.5Z" transform="translate(0 -0.007)" fill="#fff"/>
</svg>
