<svg id="Group_118" data-name="Group 118" xmlns="http://www.w3.org/2000/svg" width="13.792" height="15.762" viewBox="0 0 13.792 15.762">
  <g id="Group_117" data-name="Group 117">
    <circle id="Ellipse_18" data-name="Ellipse 18" cx="0.644" cy="0.644" r="0.644" transform="translate(9.746 9.997)" fill="#fe8e00"/>
    <path id="Path_66" data-name="Path 66" d="M45.176,11.144a.616.616,0,0,0,.616-.616V8.251a2.466,2.466,0,0,0-2.463-2.463h-.74V3.616a3.7,3.7,0,0,0-7.389,0V5.788h-.738A2.466,2.466,0,0,0,32,8.251V13.3a2.466,2.466,0,0,0,2.463,2.463h8.866A2.466,2.466,0,0,0,45.792,13.3a.616.616,0,1,0-1.231,0,1.233,1.233,0,0,1-1.231,1.231H34.463A1.233,1.233,0,0,1,33.231,13.3V8.251a1.233,1.233,0,0,1,1.231-1.231h8.866a1.233,1.233,0,0,1,1.231,1.231v2.278A.616.616,0,0,0,45.176,11.144ZM41.358,5.788H36.432V3.616a2.464,2.464,0,0,1,4.926,0Z" transform="translate(-32)" fill="#fe8e00"/>
    <circle id="Ellipse_19" data-name="Ellipse 19" cx="0.644" cy="0.644" r="0.644" transform="translate(5.118 9.997)" fill="#fe8e00"/>
    <circle id="Ellipse_20" data-name="Ellipse 20" cx="0.644" cy="0.644" r="0.644" transform="translate(2.82 9.997)" fill="#fe8e00"/>
    <circle id="Ellipse_21" data-name="Ellipse 21" cx="0.644" cy="0.644" r="0.644" transform="translate(7.417 9.997)" fill="#fe8e00"/>
  </g>
</svg>
