<svg xmlns="http://www.w3.org/2000/svg" width="11.631" height="15.508" viewBox="0 0 11.631 15.508">
  <path id="Icon_awesome-clipboard-list" data-name="Icon awesome-clipboard-list" d="M10.177,1.939H7.754a1.939,1.939,0,1,0-3.877,0H1.454A1.454,1.454,0,0,0,0,3.392V14.055a1.454,1.454,0,0,0,1.454,1.454h8.724a1.454,1.454,0,0,0,1.454-1.454V3.392A1.454,1.454,0,0,0,10.177,1.939Zm-7.27,10.9a.727.727,0,1,1,.727-.727A.725.725,0,0,1,2.908,12.843Zm0-2.908a.727.727,0,1,1,.727-.727A.725.725,0,0,1,2.908,9.935Zm0-2.908A.727.727,0,1,1,3.635,6.3.725.725,0,0,1,2.908,7.027ZM5.816,1.212a.727.727,0,1,1-.727.727A.725.725,0,0,1,5.816,1.212ZM9.693,12.358a.243.243,0,0,1-.242.242H5.089a.243.243,0,0,1-.242-.242v-.485a.243.243,0,0,1,.242-.242H9.45a.243.243,0,0,1,.242.242Zm0-2.908a.243.243,0,0,1-.242.242H5.089a.243.243,0,0,1-.242-.242V8.966a.243.243,0,0,1,.242-.242H9.45a.243.243,0,0,1,.242.242Zm0-2.908a.243.243,0,0,1-.242.242H5.089a.243.243,0,0,1-.242-.242V6.058a.243.243,0,0,1,.242-.242H9.45a.243.243,0,0,1,.242.242Z" fill="#fe8e00"/>
</svg>
